<svg width="500" height="380" viewBox="0 0 500 380" xmlns="http://www.w3.org/2000/svg">
<style>
  .ink { fill: none; stroke: #1a1714; stroke-width: 1.4; stroke-linecap: round; stroke-linejoin: round; }
  .ink-thin { fill: none; stroke: #1a1714; stroke-width: 0.9; stroke-linecap: round; stroke-linejoin: round; }
  .ink-thick { fill: none; stroke: #1a1714; stroke-width: 1.8; stroke-linecap: round; stroke-linejoin: round; }
  .fill-ink { fill: #1a1714; }
</style>

<g transform="translate(30, 30)">
  <!-- The layout board / pasteboard -->
  <rect x="0" y="0" width="440" height="320" class="ink-thick" rx="2"/>
  
  <!-- Grid lines on the board -->
  <line x1="50" y1="20" x2="50" y2="300" class="ink-thin" stroke-dasharray="1 4" opacity="0.5"/>
  <line x1="150" y1="20" x2="150" y2="300" class="ink-thin" stroke-dasharray="1 4" opacity="0.5"/>
  <line x1="250" y1="20" x2="250" y2="300" class="ink-thin" stroke-dasharray="1 4" opacity="0.5"/>
  <line x1="350" y1="20" x2="350" y2="300" class="ink-thin" stroke-dasharray="1 4" opacity="0.5"/>
  
  <!-- COLUMN STRIP 1 - already pasted, slightly askew -->
  <g transform="rotate(-1 80 100)">
    <rect x="60" y="40" width="80" height="120" class="ink" fill="#f4ede0"/>
    <line x1="65" y1="50" x2="135" y2="50" class="ink"/>
    <line x1="65" y1="56" x2="120" y2="56" class="ink"/>
    <line x1="65" y1="68" x2="135" y2="68" class="ink-thin"/>
    <line x1="65" y1="72" x2="135" y2="72" class="ink-thin"/>
    <line x1="65" y1="76" x2="130" y2="76" class="ink-thin"/>
    <line x1="65" y1="80" x2="135" y2="80" class="ink-thin"/>
    <line x1="65" y1="84" x2="125" y2="84" class="ink-thin"/>
    <line x1="65" y1="88" x2="135" y2="88" class="ink-thin"/>
    <line x1="65" y1="92" x2="135" y2="92" class="ink-thin"/>
    <line x1="65" y1="96" x2="118" y2="96" class="ink-thin"/>
    <line x1="65" y1="104" x2="135" y2="104" class="ink-thin"/>
    <line x1="65" y1="108" x2="135" y2="108" class="ink-thin"/>
    <line x1="65" y1="112" x2="128" y2="112" class="ink-thin"/>
    <line x1="65" y1="116" x2="135" y2="116" class="ink-thin"/>
    <line x1="65" y1="120" x2="135" y2="120" class="ink-thin"/>
    <line x1="65" y1="124" x2="122" y2="124" class="ink-thin"/>
    <line x1="65" y1="132" x2="135" y2="132" class="ink-thin"/>
    <line x1="65" y1="136" x2="135" y2="136" class="ink-thin"/>
    <line x1="65" y1="140" x2="115" y2="140" class="ink-thin"/>
    <line x1="65" y1="148" x2="135" y2="148" class="ink-thin"/>
    <line x1="65" y1="152" x2="130" y2="152" class="ink-thin"/>
  </g>
  
  <!-- PHOTO placeholder with X through it -->
  <rect x="160" y="40" width="80" height="60" class="ink"/>
  <line x1="160" y1="40" x2="240" y2="100" class="ink-thin"/>
  <line x1="240" y1="40" x2="160" y2="100" class="ink-thin"/>
  <text x="200" y="74" font-family="Helvetica, sans-serif" font-size="6" fill="#6b5d4d" text-anchor="middle">PHOTO 4col x 60</text>
  
  <!-- Caption under photo -->
  <line x1="160" y1="106" x2="240" y2="106" class="ink-thin"/>
  <line x1="160" y1="110" x2="235" y2="110" class="ink-thin"/>
  
  <!-- COLUMN STRIP 2 - body continues -->
  <rect x="160" y="120" width="80" height="180" class="ink-thin" fill="#f4ede0"/>
  <g class="ink-thin">
    <line x1="165" y1="128" x2="235" y2="128"/>
    <line x1="165" y1="132" x2="235" y2="132"/>
    <line x1="165" y1="136" x2="225" y2="136"/>
    <line x1="165" y1="140" x2="235" y2="140"/>
    <line x1="165" y1="144" x2="230" y2="144"/>
    <line x1="165" y1="148" x2="235" y2="148"/>
    <line x1="165" y1="152" x2="220" y2="152"/>
    <line x1="165" y1="160" x2="235" y2="160"/>
    <line x1="165" y1="164" x2="235" y2="164"/>
    <line x1="165" y1="168" x2="228" y2="168"/>
    <line x1="165" y1="172" x2="235" y2="172"/>
    <line x1="165" y1="176" x2="232" y2="176"/>
    <line x1="165" y1="180" x2="218" y2="180"/>
    <line x1="165" y1="188" x2="235" y2="188"/>
    <line x1="165" y1="192" x2="230" y2="192"/>
    <line x1="165" y1="196" x2="235" y2="196"/>
    <line x1="165" y1="200" x2="225" y2="200"/>
    <line x1="165" y1="204" x2="235" y2="204"/>
    <line x1="165" y1="212" x2="235" y2="212"/>
    <line x1="165" y1="216" x2="220" y2="216"/>
    <line x1="165" y1="220" x2="235" y2="220"/>
    <line x1="165" y1="224" x2="232" y2="224"/>
    <line x1="165" y1="232" x2="235" y2="232"/>
    <line x1="165" y1="236" x2="215" y2="236"/>
    <line x1="165" y1="240" x2="235" y2="240"/>
    <line x1="165" y1="244" x2="228" y2="244"/>
    <line x1="165" y1="252" x2="235" y2="252"/>
    <line x1="165" y1="256" x2="225" y2="256"/>
    <line x1="165" y1="260" x2="235" y2="260"/>
    <line x1="165" y1="268" x2="235" y2="268"/>
    <line x1="165" y1="272" x2="220" y2="272"/>
    <line x1="165" y1="276" x2="235" y2="276"/>
    <line x1="165" y1="284" x2="230" y2="284"/>
    <line x1="165" y1="288" x2="235" y2="288"/>
    <line x1="165" y1="292" x2="218" y2="292"/>
  </g>
  
  <!-- COLUMN STRIP 3 - loose, being placed, rotated -->
  <g transform="rotate(8 300 200)">
    <rect x="260" y="150" width="80" height="140" class="ink" fill="#f4ede0"/>
    <line x1="265" y1="160" x2="335" y2="160" class="ink"/>
    <line x1="265" y1="166" x2="320" y2="166" class="ink"/>
    <g class="ink-thin">
      <line x1="265" y1="178" x2="335" y2="178"/>
      <line x1="265" y1="182" x2="335" y2="182"/>
      <line x1="265" y1="186" x2="328" y2="186"/>
      <line x1="265" y1="190" x2="335" y2="190"/>
      <line x1="265" y1="194" x2="332" y2="194"/>
      <line x1="265" y1="198" x2="320" y2="198"/>
      <line x1="265" y1="206" x2="335" y2="206"/>
      <line x1="265" y1="210" x2="335" y2="210"/>
      <line x1="265" y1="214" x2="325" y2="214"/>
      <line x1="265" y1="218" x2="335" y2="218"/>
      <line x1="265" y1="222" x2="330" y2="222"/>
      <line x1="265" y1="230" x2="335" y2="230"/>
      <line x1="265" y1="234" x2="335" y2="234"/>
      <line x1="265" y1="238" x2="318" y2="238"/>
      <line x1="265" y1="246" x2="335" y2="246"/>
      <line x1="265" y1="250" x2="335" y2="250"/>
      <line x1="265" y1="254" x2="328" y2="254"/>
      <line x1="265" y1="262" x2="335" y2="262"/>
      <line x1="265" y1="266" x2="335" y2="266"/>
      <line x1="265" y1="270" x2="322" y2="270"/>
      <line x1="265" y1="278" x2="335" y2="278"/>
      <line x1="265" y1="282" x2="335" y2="282"/>
    </g>
  </g>
  
  <!-- Small headline strip waiting to be placed -->
  <g transform="rotate(-4 380 60)">
    <rect x="350" y="40" width="80" height="20" class="ink"/>
    <line x1="355" y1="50" x2="425" y2="50" class="ink-thick"/>
    <line x1="355" y1="55" x2="410" y2="55" class="ink-thick"/>
  </g>
  
  <!-- WAX ROLLER -->
  <g transform="translate(360, 100) rotate(15)">
    <rect x="0" y="0" width="60" height="6" class="ink-thick" rx="3"/>
    <line x1="55" y1="3" x2="65" y2="10" class="ink"/>
    <line x1="60" y1="3" x2="70" y2="10" class="ink"/>
    <ellipse cx="80" cy="13" rx="20" ry="8" class="ink-thick"/>
    <ellipse cx="80" cy="13" rx="20" ry="8" class="ink-thin" fill="none" transform="translate(0 -2)"/>
    <line x1="60" y1="13" x2="100" y2="13" class="ink-thin"/>
    <line x1="68" y1="9" x2="92" y2="9" class="ink-thin"/>
    <line x1="70" y1="11" x2="90" y2="11" class="ink-thin"/>
    <text x="30" y="4" font-family="Helvetica, sans-serif" font-size="4" fill="#1a1714" text-anchor="middle">LECTRO-STIK</text>
  </g>
  
  <!-- X-ACTO KNIFE -->
  <g transform="translate(120, 240) rotate(-25)">
    <rect x="0" y="0" width="55" height="5" class="ink-thick"/>
    <line x1="10" y1="1" x2="10" y2="4" class="ink-thin"/>
    <line x1="14" y1="1" x2="14" y2="4" class="ink-thin"/>
    <line x1="18" y1="1" x2="18" y2="4" class="ink-thin"/>
    <line x1="22" y1="1" x2="22" y2="4" class="ink-thin"/>
    <line x1="26" y1="1" x2="26" y2="4" class="ink-thin"/>
    <line x1="30" y1="1" x2="30" y2="4" class="ink-thin"/>
    <rect x="55" y="-1" width="6" height="7" class="ink"/>
    <path d="M 61 0 L 80 1 L 78 4 L 61 5 Z" class="ink-thick" fill="#1a1714"/>
  </g>
  
  <!-- RULER -->
  <g transform="translate(50, 220) rotate(70)">
    <rect x="0" y="0" width="100" height="8" class="ink"/>
    <line x1="10" y1="0" x2="10" y2="3" class="ink-thin"/>
    <line x1="20" y1="0" x2="20" y2="4" class="ink-thin"/>
    <line x1="30" y1="0" x2="30" y2="3" class="ink-thin"/>
    <line x1="40" y1="0" x2="40" y2="4" class="ink-thin"/>
    <line x1="50" y1="0" x2="50" y2="5" class="ink-thin"/>
    <line x1="60" y1="0" x2="60" y2="4" class="ink-thin"/>
    <line x1="70" y1="0" x2="70" y2="3" class="ink-thin"/>
    <line x1="80" y1="0" x2="80" y2="4" class="ink-thin"/>
    <line x1="90" y1="0" x2="90" y2="3" class="ink-thin"/>
  </g>
  
  <!-- A small loose photo print -->
  <g transform="translate(20, 30) rotate(-12)">
    <rect x="0" y="0" width="35" height="28" class="ink-thick" fill="#f4ede0"/>
    <rect x="2" y="2" width="31" height="20" class="ink-thin"/>
    <circle cx="12" cy="12" r="3" class="ink-thin"/>
    <path d="M 17 16 L 25 10 L 30 14" class="ink-thin"/>
    <line x1="2" y1="22" x2="33" y2="22" class="ink-thin"/>
    <text x="17" y="27" font-family="Helvetica, sans-serif" font-size="3" fill="#6b5d4d" text-anchor="middle">B&amp;W 5x7</text>
  </g>
  
  <!-- Coffee ring -->
  <ellipse cx="395" cy="270" rx="14" ry="3" class="ink-thin" stroke-dasharray="2 2"/>
  <ellipse cx="395" cy="270" rx="11" ry="2.5" class="ink-thin" stroke-dasharray="1 2"/>
</g>
</svg>
