<svg width="380" height="320" viewBox="0 0 380 320" xmlns="http://www.w3.org/2000/svg">
<style>
  .ink { fill: none; stroke: #1a1714; stroke-width: 1.4; stroke-linecap: round; stroke-linejoin: round; }
  .ink-thin { fill: none; stroke: #1a1714; stroke-width: 0.9; stroke-linecap: round; stroke-linejoin: round; }
  .ink-thick { fill: none; stroke: #1a1714; stroke-width: 1.8; stroke-linecap: round; stroke-linejoin: round; }
  .fill-ink { fill: #1a1714; }
</style>

<g transform="translate(50, 20)">
  <line x1="-40" y1="50" x2="290" y2="50" class="ink-thick"/>
  
  <line x1="-40" y1="50" x2="-40" y2="62" class="ink"/>
  <line x1="20" y1="50" x2="20" y2="62" class="ink"/>
  <line x1="80" y1="50" x2="80" y2="62" class="ink"/>
  <line x1="170" y1="50" x2="170" y2="62" class="ink"/>
  <line x1="230" y1="50" x2="230" y2="62" class="ink"/>
  <line x1="290" y1="50" x2="290" y2="62" class="ink"/>
  <line x1="-40" y1="62" x2="20" y2="62" class="ink"/>
  <line x1="20" y1="62" x2="80" y2="62" class="ink"/>
  <line x1="170" y1="62" x2="230" y2="62" class="ink"/>
  <line x1="230" y1="62" x2="290" y2="62" class="ink"/>
  
  <line x1="80" y1="50" x2="80" y2="62" class="ink"/>
  <line x1="170" y1="50" x2="170" y2="62" class="ink"/>
  
  <g transform="rotate(-12 230 30)">
    <rect x="200" y="20" width="60" height="3" class="ink"/>
    <rect x="200" y="23" width="60" height="12" class="ink-thin" fill="#f4ede0"/>
    <circle cx="208" cy="29" r="0.6" class="fill-ink"/>
    <circle cx="215" cy="31" r="0.6" class="fill-ink"/>
    <circle cx="222" cy="28" r="0.6" class="fill-ink"/>
    <circle cx="230" cy="30" r="0.6" class="fill-ink"/>
    <circle cx="237" cy="29" r="0.6" class="fill-ink"/>
    <circle cx="245" cy="31" r="0.6" class="fill-ink"/>
    <circle cx="252" cy="28" r="0.6" class="fill-ink"/>
  </g>
  
  <line x1="85" y1="48" x2="165" y2="48" class="ink-thin"/>
  <line x1="90" y1="46" x2="160" y2="46" class="ink-thin"/>
  
  <line x1="120" y1="50" x2="120" y2="58" class="ink"/>
  <line x1="130" y1="50" x2="130" y2="58" class="ink"/>
  
  <path d="M 105 60 Q 110 57 120 58 L 130 58 Q 140 57 145 60" class="ink-thick"/>
  
  <path d="M 105 60 L 103 95 L 105 130" class="ink-thick"/>
  <path d="M 145 60 L 147 95 L 145 130" class="ink-thick"/>
  
  <path d="M 120 58 Q 125 64 130 58" class="ink-thin"/>
  
  <line x1="108" y1="90" x2="142" y2="90" class="ink-thin" opacity="0.4"/>
  
  <path d="M 105 64 L 95 56 L 90 50" class="ink-thick"/>
  <path d="M 145 64 L 155 56 L 160 50" class="ink-thick"/>
  
  <line x1="105" y1="130" x2="145" y2="130" class="ink"/>
  
  <path d="M 105 130 L 107 200" class="ink-thick"/>
  <path d="M 125 130 L 125 200" class="ink"/>
  <path d="M 145 130 L 143 200" class="ink-thick"/>
  
  <line x1="107" y1="200" x2="121" y2="200" class="ink"/>
  <line x1="129" y1="200" x2="143" y2="200" class="ink"/>
  
  <path d="M 104 200 Q 100 208 110 210 L 121 210 Q 124 208 121 200" class="ink-thick"/>
  <path d="M 129 200 Q 126 208 132 210 L 146 210 Q 150 208 146 200" class="ink-thick"/>
  <line x1="108" y1="206" x2="118" y2="206" class="ink-thin"/>
  <line x1="133" y1="206" x2="143" y2="206" class="ink-thin"/>
  
  <line x1="60" y1="240" x2="105" y2="155" class="ink-thick"/>
  <line x1="190" y1="240" x2="145" y2="155" class="ink-thick"/>
  <line x1="105" y1="155" x2="145" y2="155" class="ink-thick"/>
  <rect x="103" y="153" width="44" height="6" class="ink"/>
  
  <line x1="74" y1="210" x2="100" y2="210" class="ink"/>
  <line x1="170" y1="210" x2="148" y2="210" class="ink"/>
  <line x1="82" y1="185" x2="103" y2="185" class="ink"/>
  <line x1="162" y1="185" x2="142" y2="185" class="ink"/>
  
  <path d="M 200 50 Q 215 70 205 95 Q 195 120 215 145 Q 235 170 220 195 Q 205 215 225 240" class="ink"/>
  <rect x="220" y="240" width="12" height="7" class="ink"/>
  <line x1="226" y1="240" x2="226" y2="246" class="ink-thin"/>
  
  <circle cx="40" cy="80" r="1" class="fill-ink"/>
  <circle cx="180" cy="100" r="1" class="fill-ink"/>
  <circle cx="240" cy="75" r="1" class="fill-ink"/>
  <circle cx="50" cy="140" r="0.8" class="fill-ink"/>
  <circle cx="200" cy="160" r="1" class="fill-ink"/>
  <circle cx="30" cy="190" r="0.8" class="fill-ink"/>
  <circle cx="250" cy="130" r="1" class="fill-ink"/>
  <circle cx="20" cy="110" r="0.6" class="fill-ink"/>
  <circle cx="265" cy="180" r="0.8" class="fill-ink"/>
  
  <line x1="-40" y1="260" x2="290" y2="260" class="ink-thin"/>
  
  <ellipse cx="240" cy="255" rx="20" ry="5" class="ink-thin"/>
</g>
</svg>
