<svg width="400" height="320" viewBox="0 0 400 320" xmlns="http://www.w3.org/2000/svg">
<style>
  .ink { fill: none; stroke: #1a1714; stroke-width: 1.4; stroke-linecap: round; stroke-linejoin: round; }
  .ink-thin { fill: none; stroke: #1a1714; stroke-width: 0.9; stroke-linecap: round; stroke-linejoin: round; }
  .ink-thick { fill: none; stroke: #1a1714; stroke-width: 1.8; stroke-linecap: round; stroke-linejoin: round; }
  .fill-ink { fill: #1a1714; }
</style>

<g transform="translate(60, 20)">
  <line x1="-40" y1="220" x2="290" y2="220" class="ink-thick"/>
  <line x1="-20" y1="220" x2="-20" y2="260" class="ink"/>
  <line x1="270" y1="220" x2="270" y2="260" class="ink"/>
  <path d="M 0 224 Q 30 222 60 224" class="ink-thin"/>
  <path d="M 100 226 Q 140 224 180 226" class="ink-thin"/>
  <path d="M 210 222 Q 230 220 250 222" class="ink-thin"/>
  
  <rect x="60" y="20" width="170" height="200" class="ink-thick" rx="3"/>
  <rect x="68" y="28" width="154" height="184" class="ink-thin" rx="2" opacity="0.3"/>
  
  <rect x="78" y="40" width="134" height="100" class="ink-thick" rx="2"/>
  
  <line x1="80" y1="50" x2="210" y2="50" class="ink"/>
  <path d="M 86 46 Q 88 44 90 46 Q 92 44 92 47 Q 92 49 89 49 Q 86 49 86 46 Z" class="fill-ink"/>
  <line x1="89" y1="44" x2="90" y2="42" class="ink-thin"/>
  <line x1="100" y1="46" x2="115" y2="46" class="ink-thin"/>
  <line x1="120" y1="46" x2="138" y2="46" class="ink-thin"/>
  <line x1="143" y1="46" x2="156" y2="46" class="ink-thin"/>
  
  <rect x="92" y="60" width="105" height="68" class="ink-thin"/>
  <line x1="92" y1="68" x2="197" y2="68" class="ink-thin"/>
  <line x1="94" y1="62" x2="190" y2="62" class="ink-thin" opacity="0.5"/>
  <line x1="94" y1="65" x2="190" y2="65" class="ink-thin" opacity="0.5"/>
  <rect x="95" y="62" width="4" height="4" class="ink-thin"/>
  
  <line x1="98" y1="76" x2="190" y2="76" class="ink-thin"/>
  <line x1="98" y1="82" x2="180" y2="82" class="ink-thin"/>
  <line x1="98" y1="88" x2="190" y2="88" class="ink-thin"/>
  <line x1="98" y1="94" x2="175" y2="94" class="ink-thin"/>
  <line x1="98" y1="100" x2="190" y2="100" class="ink-thin"/>
  <line x1="98" y1="106" x2="170" y2="106" class="ink-thin"/>
  <line x1="98" y1="112" x2="190" y2="112" class="ink-thin"/>
  <line x1="98" y1="118" x2="160" y2="118" class="ink-thin"/>
  
  <rect x="98" y="178" width="94" height="12" class="ink" rx="1"/>
  <line x1="102" y1="184" x2="188" y2="184" class="ink-thin"/>
  <circle cx="200" cy="184" r="2" class="ink-thin"/>
  
  <rect x="78" y="148" width="134" height="22" class="ink-thin" opacity="0.2"/>
  <text x="145" y="164" font-family="Georgia, serif" font-size="9" fill="#1a1714" font-style="italic" text-anchor="middle">Macintosh SE</text>
  
  <line x1="78" y1="200" x2="92" y2="200" class="ink-thin"/>
  <line x1="78" y1="204" x2="92" y2="204" class="ink-thin"/>
  <line x1="78" y1="208" x2="92" y2="208" class="ink-thin"/>
  <line x1="198" y1="200" x2="212" y2="200" class="ink-thin"/>
  <line x1="198" y1="204" x2="212" y2="204" class="ink-thin"/>
  <line x1="198" y1="208" x2="212" y2="208" class="ink-thin"/>
  
  <rect x="40" y="232" width="200" height="22" class="ink" rx="2"/>
  <line x1="50" y1="237" x2="230" y2="237" class="ink-thin"/>
  <line x1="50" y1="242" x2="230" y2="242" class="ink-thin"/>
  <line x1="50" y1="247" x2="230" y2="247" class="ink-thin"/>
  
  <rect x="248" y="234" width="20" height="14" class="ink" rx="2"/>
  <line x1="258" y1="234" x2="258" y2="240" class="ink-thin"/>
  <path d="M 248 240 Q 240 244 244 250" class="ink-thin"/>
  
  <ellipse cx="-5" cy="220" rx="14" ry="3" class="ink-thin" stroke-dasharray="2 2"/>
  <rect x="-17" y="195" width="24" height="25" class="ink" rx="1"/>
  <path d="M 7 200 Q 16 200 16 208 Q 16 216 7 216" class="ink"/>
  <path d="M -10 190 Q -12 184 -8 178" class="ink-thin"/>
  <path d="M -2 190 Q 0 184 -3 178" class="ink-thin"/>
</g>
</svg>
